<?xml version="1.0" standalone="no"?>
<!DOCTYPE svg PUBLIC "-//W3C//DTD SVG 20010904//EN"
 "http://www.w3.org/TR/2001/REC-SVG-20010904/DTD/svg10.dtd">
<svg version="1.0" xmlns="http://www.w3.org/2000/svg"
 width="800px" height="800px" viewBox="0 0 4096.000000 4096.000000"
 preserveAspectRatio="xMidYMid meet">

<g transform="translate(0.000000,4096.000000) scale(0.100000,-0.100000)"
fill="#ffffff" stroke="none">
<path d="M20280 40253 c-839 -13 -1798 -95 -2665 -229 -3811 -587 -7374 -2295
-10270 -4923 -471 -427 -1061 -1023 -1479 -1491 -2155 -2419 -3683 -5284
-4471 -8385 -347 -1367 -540 -2712 -596 -4159 -24 -624 -3 -1655 46 -2286 287
-3662 1556 -7125 3699 -10095 649 -899 1296 -1657 2105 -2465 546 -545 966
-926 1526 -1381 2787 -2266 6121 -3737 9640 -4253 1091 -161 2152 -226 3295
-205 1729 33 3413 285 5070 758 2325 663 4526 1759 6470 3221 196 147 478 367
585 455 673 558 1034 884 1555 1405 805 805 1503 1628 2153 2537 2189 3065
3463 6668 3677 10398 43 757 41 1665 -5 2410 -96 1525 -360 3018 -791 4459
-1088 3637 -3191 6886 -6084 9397 -1956 1697 -4268 3017 -6707 3828 -802 267
-1506 454 -2373 631 -169 35 -529 99 -755 134 -1184 187 -2287 260 -3625 239z
m1115 -2343 c2798 -117 5439 -865 7865 -2228 2111 -1186 3968 -2813 5431
-4757 1002 -1331 1804 -2792 2391 -4350 596 -1582 966 -3290 1082 -4995 42
-605 54 -1530 27 -2060 -58 -1164 -197 -2192 -441 -3246 -947 -4101 -3353
-7727 -6780 -10217 -2670 -1941 -5805 -3079 -9095 -3301 -787 -54 -1776 -46
-2575 19 -2709 222 -5340 1084 -7664 2512 -1717 1055 -3258 2415 -4520 3988
-634 790 -1202 1638 -1703 2545 -174 315 -504 981 -657 1325 -230 517 -450
1087 -627 1618 -710 2136 -1017 4466 -874 6627 271 4066 1850 7805 4563 10800
342 377 918 946 1317 1302 1380 1229 2940 2230 4625 2970 1026 450 2143 815
3220 1052 1049 230 2028 354 3145 399 187 8 1067 6 1270 -3z"/>
<path d="M9310 20390 l0 -8520 11425 0 11425 0 0 8520 0 8520 -11425 0 -11425
0 0 -8520z m18465 8282 c-82 -80 -3932 -3816 -5760 -5590 l-1270 -1233 -390
393 c-215 216 -948 958 -1630 1648 -2193 2219 -4636 4693 -4714 4773 l-76 77
6955 0 6955 0 -70 -68z m1073 -10313 l-3 -2380 -3038 2126 c-1671 1170 -3035
2131 -3030 2135 36 33 3310 2871 4998 4334 l1070 926 3 -2380 c1 -1309 1
-3451 0 -4761z m-14808 5879 c641 -545 1927 -1639 2858 -2430 930 -792 1692
-1443 1692 -1448 0 -4 -314 -259 -697 -566 -1753 -1403 -5024 -4014 -5028
-4014 -3 0 -5 2126 -5 4725 0 2599 4 4725 8 4725 4 0 532 -446 1172 -992z
m5025 -4309 c69 -26 119 -63 287 -215 306 -277 1407 -1199 1432 -1199 12 0
458 384 1273 1097 l351 308 1644 -1163 c3353 -2373 4645 -3293 4696 -3341 68
-65 104 -148 113 -264 5 -53 8 -779 9 -1612 l0 -1515 -7907 0 c-7639 0 -7910
1 -7958 19 -63 23 -109 57 -140 104 -54 83 -53 39 -45 1452 6 1185 8 1311 24
1365 24 85 78 194 117 237 37 40 474 394 2794 2263 853 687 1865 1504 2251
1816 385 312 725 582 755 600 113 70 206 85 304 48z"/>
</g>
</svg>
