<?xml version="1.0" standalone="no"?>
<!DOCTYPE svg PUBLIC "-//W3C//DTD SVG 20010904//EN"
 "http://www.w3.org/TR/2001/REC-SVG-20010904/DTD/svg10.dtd">
<svg version="1.0" xmlns="http://www.w3.org/2000/svg"
 width="2560.000000pt" height="996.000000pt" viewBox="0 0 2560.000000 996.000000"
 preserveAspectRatio="xMidYMid meet">

<g transform="translate(0.000000,996.000000) scale(0.100000,-0.100000)"
fill="#000000" stroke="none">
<path d="M13760 5365 l0 -1615 290 0 290 0 0 116 0 116 53 -48 c115 -104 262
-181 425 -221 97 -24 348 -24 462 1 637 138 994 741 873 1476 -83 505 -419
859 -888 935 -314 51 -620 -29 -820 -216 l-65 -61 -2 563 -3 564 -307 3 -308
2 0 -1615z m1390 201 c189 -65 324 -222 381 -441 29 -112 30 -318 1 -425 -60
-225 -192 -374 -386 -436 -100 -32 -245 -36 -345 -10 -154 40 -288 150 -360
297 -64 131 -76 189 -76 369 1 174 13 235 71 357 37 79 120 176 192 225 55 38
147 75 215 88 84 15 228 4 307 -24z"/>
<path d="M23400 5365 l0 -1615 310 0 310 0 2 598 3 598 385 -594 c212 -327
390 -596 395 -598 6 -2 169 -3 363 -2 l352 3 -436 630 c-241 347 -437 635
-437 640 0 6 180 242 399 525 220 283 404 521 408 528 6 9 -64 12 -337 12
l-344 0 -374 -490 -374 -490 -3 935 -2 935 -310 0 -310 0 0 -1615z"/>
<path d="M2548 6332 c-428 -235 -777 -429 -777 -432 0 -4 459 -270 1396 -809
l163 -93 767 442 c423 244 773 448 780 454 8 8 -188 120 -764 436 -426 234
-777 426 -781 427 -4 1 -357 -190 -784 -425z"/>
<path d="M12182 6125 c-407 -74 -732 -363 -865 -770 -45 -136 -58 -214 -64
-386 -9 -259 25 -437 122 -635 94 -194 211 -328 386 -444 302 -200 744 -255
1109 -139 219 69 456 241 561 407 l28 44 -202 154 -202 153 -53 -59 c-67 -75
-169 -143 -274 -182 -73 -28 -98 -32 -213 -36 -155 -5 -218 8 -341 68 -163 80
-293 268 -294 428 l0 32 819 0 819 0 4 63 c11 191 -28 474 -88 633 -144 384
-436 616 -849 673 -102 15 -313 12 -403 -4z m341 -500 c179 -38 319 -175 362
-356 8 -35 15 -74 15 -86 l0 -23 -499 0 c-275 0 -502 3 -504 8 -2 4 1 34 8 67
61 289 321 453 618 390z"/>
<path d="M17506 6124 c-179 -35 -338 -117 -463 -237 l-42 -41 -3 120 -3 119
-287 3 -288 2 0 -1590 0 -1590 305 0 305 0 0 535 c0 294 3 535 6 535 4 0 35
-27 70 -59 104 -97 230 -163 392 -203 111 -28 355 -30 469 -5 287 65 505 211
657 440 142 213 209 460 209 762 0 186 -17 299 -69 454 -79 236 -206 417 -389
554 -90 67 -228 138 -325 167 -166 49 -397 64 -544 34z m294 -553 c195 -60
333 -214 391 -436 30 -114 30 -297 0 -420 -32 -133 -82 -226 -166 -310 -116
-117 -242 -168 -410 -168 -170 1 -294 51 -410 168 -121 121 -174 258 -182 471
-7 167 11 263 72 390 85 177 231 292 408 324 76 13 222 4 297 -19z"/>
<path d="M19770 6124 c-119 -18 -258 -56 -374 -100 -99 -38 -280 -130 -297
-151 -9 -10 15 -61 101 -215 62 -112 113 -204 114 -205 2 -2 43 15 92 36 333
144 664 161 826 42 52 -38 97 -100 114 -158 15 -48 20 -258 7 -251 -162 83
-261 108 -455 115 -166 6 -270 -6 -393 -44 -222 -70 -394 -208 -480 -388 -107
-224 -97 -513 27 -723 44 -76 179 -210 253 -253 172 -100 309 -134 530 -133
230 2 348 36 488 142 37 29 70 52 71 52 2 0 12 -31 21 -70 l17 -70 274 0 274
0 0 770 c0 479 -4 807 -11 866 -15 138 -42 236 -95 344 -38 75 -62 109 -124
171 -64 64 -94 85 -181 128 -168 81 -324 112 -562 110 -78 -1 -185 -7 -237
-15z m373 -1335 c152 -51 228 -151 229 -300 0 -190 -160 -319 -397 -319 -180
0 -319 70 -379 193 -36 70 -36 179 -2 252 46 97 153 172 276 194 76 14 201 4
273 -20z"/>
<path d="M22220 6126 c-359 -65 -646 -247 -825 -525 -135 -210 -195 -423 -195
-695 0 -161 18 -280 60 -408 138 -414 467 -695 918 -785 124 -25 387 -24 502
1 155 33 333 110 442 191 43 32 46 37 38 62 -79 244 -153 469 -155 471 -2 2
-30 -16 -62 -40 -239 -176 -538 -211 -783 -90 -104 51 -222 168 -272 272 -57
118 -72 186 -72 335 0 152 15 218 77 345 180 369 676 450 1041 170 65 -50 66
-50 75 -28 4 13 43 128 86 257 l79 233 -25 19 c-46 37 -174 109 -248 140 -147
61 -248 81 -436 85 -113 2 -195 -1 -245 -10z"/>
<path d="M7601 5983 c16 -54 172 -577 347 -1163 l318 -1065 345 -3 345 -2 214
740 c118 407 217 740 220 740 3 0 92 -305 199 -677 107 -373 203 -706 213
-740 l19 -63 344 0 345 0 5 23 c4 12 160 535 348 1162 l343 1140 -330 3 c-181
1 -333 -1 -336 -5 -4 -5 -99 -374 -210 -822 -116 -463 -206 -807 -210 -800 -5
8 -101 363 -214 789 -114 426 -212 790 -217 808 l-11 32 -290 -2 -291 -3 -220
-817 c-121 -450 -223 -815 -226 -813 -3 3 -96 371 -207 818 l-201 812 -336 3
-335 2 29 -97z"/>
<path d="M1662 4844 l3 -848 769 -423 c423 -233 771 -423 773 -423 2 0 2 372
1 827 l-3 827 -760 439 c-418 241 -766 441 -773 444 -10 4 -12 -165 -10 -843z"/>
<path d="M4213 5243 l-773 -447 0 -823 c0 -453 3 -823 8 -823 4 0 354 191 777
423 l770 423 3 847 c1 466 -1 847 -5 846 -5 0 -356 -201 -780 -446z"/>
</g>
</svg>
